<svg width="310" height="120" viewBox="0 0 310 120" fill="none" xmlns="http://www.w3.org/2000/svg">
<g clip-path="url(#clip0_221_37)">
<path d="M10.2418 49.4588C5.35812 45.691 2.61449 40.5807 2.61449 35.2522C2.61449 29.9237 5.35812 24.8135 10.2418 21.0457C15.1255 17.2779 21.7492 15.1612 28.6558 15.1612C35.5624 15.1612 42.1861 17.2779 47.0698 21.0457L53.1838 25.7627L59.2918 21.0457C64.1755 17.2761 70.8002 15.1576 77.7084 15.1563C84.6167 15.1549 91.2427 17.2709 96.1288 21.0388C101.015 24.8066 103.761 29.9175 103.763 35.2473C103.764 40.5771 101.022 45.6891 96.1378 49.4588L90.6298 53.7175L53.1958 82.5981L10.2418 49.4588Z" fill="#FF0A0A"/>
<path d="M101.886 24.545C101.023 23.8808 100.103 23.2622 99.1318 22.6934C96.8079 20.3348 93.8565 18.3873 90.4761 16.9817C87.0956 15.5761 83.3644 14.745 79.5331 14.5441C75.7018 14.3433 71.8592 14.7774 68.2634 15.8174C64.6676 16.8573 61.4019 18.4789 58.6858 20.5733L53.1838 24.8228L47.6758 20.5733C42.6314 16.6815 35.7897 14.4951 28.6558 14.4951C21.5219 14.4951 14.6802 16.6815 9.63582 20.5733C4.5914 24.4651 1.75748 29.7435 1.75748 35.2474C1.75748 40.7512 4.5914 46.0296 9.63582 49.9214L15.1438 54.1709L17.8258 56.2447L20.2858 58.138L37.2718 71.2521L53.1958 83.5329L58.3438 87.5L96.3778 58.1519L101.886 53.8932C106.926 49.9996 109.757 44.7218 109.757 39.2191C109.757 33.7164 106.926 28.4386 101.886 24.545V24.545ZM10.8478 21.513C15.5728 17.8722 21.9778 15.8271 28.6558 15.8271C35.3338 15.8271 41.7388 17.8722 46.4638 21.513L51.9718 25.7625L53.1718 26.6883L54.3718 25.7625L59.8738 21.513C64.64 18.0301 70.9797 16.1196 77.5438 16.188C84.108 16.2565 90.3785 18.2985 95.0209 21.8795C99.6632 25.4605 102.311 30.2979 102.401 35.3622C102.491 40.4265 100.015 45.3179 95.5018 48.9956L89.9998 53.2497L53.1958 81.6628L16.3558 53.2405L10.8478 48.991C6.12868 45.3456 3.47799 40.4041 3.47799 35.252C3.47799 30.0999 6.12868 25.1584 10.8478 21.513V21.513Z" fill="#8A8686"/>
</g>
<path d="M14.8672 59.3787H37.8836L42.6049 49.7815L49.0967 59.3787L55.5885 40.9487L60.3098 59.3787H86.8672" stroke="black" stroke-width="6"/>
<path d="M14.8672 59.3787H37.8836L42.6049 49.7815L49.0967 59.3787L55.5885 40.9487L60.3098 59.3787H86.8672" stroke="#FCFCFF" stroke-width="4"/>
<path d="M95.7172 73V49.7273H102.035V67.9091H111.444V73H95.7172ZM126.717 49.7273V73H120.398V49.7273H126.717ZM136.111 73V49.7273H152.475V54.8182H142.429V58.8182H151.475V63.9091H142.429V73H136.111ZM161.198 73V49.7273H177.971V54.8182H167.517V58.8182H177.108V63.9091H167.517V67.9091H177.926V73H161.198ZM187.505 73V49.7273H203.868V54.8182H193.823V58.8182H202.868V63.9091H193.823V73H187.505ZM212.592 73V49.7273H218.91V67.9091H228.319V73H212.592ZM258.913 61.3636C258.913 63.9545 258.409 66.1402 257.401 67.9205C256.394 69.6932 255.034 71.0379 253.322 71.9545C251.61 72.8636 249.701 73.3182 247.594 73.3182C245.473 73.3182 243.557 72.8598 241.844 71.9432C240.14 71.0189 238.784 69.6705 237.776 67.8977C236.776 66.1174 236.276 63.9394 236.276 61.3636C236.276 58.7727 236.776 56.5909 237.776 54.8182C238.784 53.0379 240.14 51.6932 241.844 50.7841C243.557 49.8674 245.473 49.4091 247.594 49.4091C249.701 49.4091 251.61 49.8674 253.322 50.7841C255.034 51.6932 256.394 53.0379 257.401 54.8182C258.409 56.5909 258.913 58.7727 258.913 61.3636ZM252.413 61.3636C252.413 59.9697 252.227 58.7955 251.856 57.8409C251.492 56.8788 250.951 56.1515 250.231 55.6591C249.519 55.1591 248.64 54.9091 247.594 54.9091C246.549 54.9091 245.666 55.1591 244.947 55.6591C244.235 56.1515 243.693 56.8788 243.322 57.8409C242.958 58.7955 242.776 59.9697 242.776 61.3636C242.776 62.7576 242.958 63.9356 243.322 64.8977C243.693 65.8523 244.235 66.5795 244.947 67.0795C245.666 67.572 246.549 67.8182 247.594 67.8182C248.64 67.8182 249.519 67.572 250.231 67.0795C250.951 66.5795 251.492 65.8523 251.856 64.8977C252.227 63.9356 252.413 62.7576 252.413 61.3636ZM272.676 73L265.813 49.7273H272.858L276.04 64.0455H276.222L279.994 49.7273H285.54L289.313 64.0909H289.494L292.676 49.7273H299.722L292.858 73H286.813L282.858 60H282.676L278.722 73H272.676Z" fill="#7B6969"/>
<path d="M94.2172 79.3636H300.267V81.5455H94.2172V79.3636Z" fill="#7B6969"/>
<path d="M59.9472 105.5H56.004V93.8636H60.0267C61.182 93.8636 62.1744 94.0966 63.004 94.5625C63.8373 95.0246 64.4775 95.6894 64.9244 96.5568C65.3714 97.4242 65.5949 98.4621 65.5949 99.6705C65.5949 100.883 65.3695 101.924 64.9187 102.795C64.4718 103.667 63.8259 104.335 62.9812 104.801C62.1403 105.267 61.129 105.5 59.9472 105.5ZM58.1119 103.676H59.8449C60.6555 103.676 61.3316 103.528 61.8733 103.233C62.415 102.934 62.8222 102.489 63.0949 101.898C63.3676 101.303 63.504 100.561 63.504 99.6705C63.504 98.7803 63.3676 98.0417 63.0949 97.4545C62.8222 96.8636 62.4187 96.4223 61.8847 96.1307C61.3544 95.8352 60.6953 95.6875 59.9074 95.6875H58.1119V103.676ZM72.1136 105.67C71.2614 105.67 70.5227 105.483 69.8977 105.108C69.2727 104.733 68.7879 104.208 68.4432 103.534C68.1023 102.86 67.9318 102.072 67.9318 101.17C67.9318 100.269 68.1023 99.4792 68.4432 98.8011C68.7879 98.1231 69.2727 97.5966 69.8977 97.2216C70.5227 96.8466 71.2614 96.6591 72.1136 96.6591C72.9659 96.6591 73.7045 96.8466 74.3295 97.2216C74.9545 97.5966 75.4375 98.1231 75.7784 98.8011C76.1231 99.4792 76.2955 100.269 76.2955 101.17C76.2955 102.072 76.1231 102.86 75.7784 103.534C75.4375 104.208 74.9545 104.733 74.3295 105.108C73.7045 105.483 72.9659 105.67 72.1136 105.67ZM72.125 104.023C72.5871 104.023 72.9735 103.896 73.2841 103.642C73.5947 103.384 73.8258 103.04 73.9773 102.608C74.1326 102.176 74.2102 101.695 74.2102 101.165C74.2102 100.631 74.1326 100.148 73.9773 99.7159C73.8258 99.2803 73.5947 98.9337 73.2841 98.6761C72.9735 98.4186 72.5871 98.2898 72.125 98.2898C71.6515 98.2898 71.2576 98.4186 70.9432 98.6761C70.6326 98.9337 70.3996 99.2803 70.2443 99.7159C70.0928 100.148 70.017 100.631 70.017 101.165C70.017 101.695 70.0928 102.176 70.2443 102.608C70.3996 103.04 70.6326 103.384 70.9432 103.642C71.2576 103.896 71.6515 104.023 72.125 104.023ZM80.898 100.386V105.5H78.8412V96.7727H80.8071V98.2557H80.9094C81.1101 97.767 81.4302 97.3788 81.8696 97.0909C82.3128 96.803 82.8601 96.6591 83.5116 96.6591C84.1139 96.6591 84.6385 96.7879 85.0855 97.0455C85.5363 97.303 85.8848 97.6761 86.131 98.1648C86.381 98.6534 86.5041 99.2462 86.5003 99.9432V105.5H84.4435V100.261C84.4435 99.678 84.2919 99.2216 83.9889 98.892C83.6897 98.5625 83.2749 98.3977 82.7446 98.3977C82.3848 98.3977 82.0647 98.4773 81.7844 98.6364C81.5079 98.7917 81.2901 99.017 81.131 99.3125C80.9757 99.608 80.898 99.9659 80.898 100.386ZM91.9026 105.676C91.3495 105.676 90.8514 105.578 90.4082 105.381C89.9688 105.18 89.6204 104.884 89.3628 104.494C89.109 104.104 88.9821 103.623 88.9821 103.051C88.9821 102.559 89.073 102.152 89.2548 101.83C89.4366 101.508 89.6848 101.25 89.9991 101.057C90.3135 100.864 90.6677 100.718 91.0616 100.619C91.4594 100.517 91.8704 100.443 92.2946 100.398C92.806 100.345 93.2207 100.297 93.5389 100.256C93.8571 100.21 94.0882 100.142 94.2321 100.051C94.3798 99.9564 94.4537 99.8106 94.4537 99.6136V99.5795C94.4537 99.1515 94.3268 98.8201 94.073 98.5852C93.8192 98.3504 93.4537 98.233 92.9764 98.233C92.4726 98.233 92.073 98.3428 91.7776 98.5625C91.4859 98.7822 91.2889 99.0417 91.1866 99.3409L89.2662 99.0682C89.4177 98.5379 89.6677 98.0947 90.0162 97.7386C90.3647 97.3788 90.7908 97.1098 91.2946 96.9318C91.7984 96.75 92.3552 96.6591 92.9651 96.6591C93.3855 96.6591 93.8041 96.7083 94.2207 96.8068C94.6374 96.9053 95.0181 97.0682 95.3628 97.2955C95.7075 97.5189 95.984 97.8239 96.1923 98.2102C96.4044 98.5966 96.5105 99.0795 96.5105 99.6591V105.5H94.5332V104.301H94.4651C94.3401 104.544 94.1639 104.771 93.9366 104.983C93.7132 105.191 93.431 105.36 93.0901 105.489C92.7529 105.614 92.3571 105.676 91.9026 105.676ZM92.4366 104.165C92.8495 104.165 93.2075 104.083 93.5105 103.92C93.8135 103.754 94.0465 103.534 94.2094 103.261C94.376 102.989 94.4594 102.691 94.4594 102.369V101.341C94.395 101.394 94.2851 101.443 94.1298 101.489C93.9783 101.534 93.8079 101.574 93.6185 101.608C93.4291 101.642 93.2416 101.672 93.056 101.699C92.8704 101.725 92.7094 101.748 92.573 101.767C92.2662 101.809 91.9916 101.877 91.7491 101.972C91.5067 102.066 91.3154 102.199 91.1753 102.369C91.0351 102.536 90.9651 102.752 90.9651 103.017C90.9651 103.396 91.1033 103.682 91.3798 103.875C91.6563 104.068 92.0086 104.165 92.4366 104.165ZM103.737 96.7727V98.3636H98.7196V96.7727H103.737ZM99.9582 94.6818H102.015V102.875C102.015 103.152 102.057 103.364 102.14 103.511C102.227 103.655 102.341 103.754 102.481 103.807C102.621 103.86 102.776 103.886 102.947 103.886C103.076 103.886 103.193 103.877 103.299 103.858C103.409 103.839 103.492 103.822 103.549 103.807L103.896 105.415C103.786 105.453 103.629 105.494 103.424 105.54C103.223 105.585 102.977 105.612 102.686 105.619C102.17 105.634 101.706 105.557 101.293 105.386C100.881 105.212 100.553 104.943 100.311 104.58C100.072 104.216 99.9544 103.761 99.9582 103.216V94.6818ZM110.027 105.67C109.152 105.67 108.396 105.489 107.76 105.125C107.127 104.758 106.64 104.239 106.299 103.568C105.959 102.894 105.788 102.1 105.788 101.188C105.788 100.29 105.959 99.5019 106.299 98.8239C106.644 98.142 107.125 97.6117 107.743 97.233C108.36 96.8504 109.085 96.6591 109.919 96.6591C110.457 96.6591 110.964 96.7462 111.441 96.9205C111.923 97.0909 112.347 97.3561 112.714 97.7159C113.085 98.0758 113.377 98.5341 113.589 99.0909C113.801 99.6439 113.907 100.303 113.907 101.068V101.699H106.754V100.312H111.936C111.932 99.9186 111.847 99.5682 111.68 99.2614C111.513 98.9508 111.28 98.7064 110.981 98.5284C110.686 98.3504 110.341 98.2614 109.947 98.2614C109.527 98.2614 109.157 98.3636 108.839 98.5682C108.521 98.7689 108.273 99.0341 108.095 99.3636C107.921 99.6894 107.832 100.047 107.828 100.438V101.648C107.828 102.155 107.921 102.591 108.106 102.955C108.292 103.314 108.551 103.591 108.885 103.784C109.218 103.973 109.608 104.068 110.055 104.068C110.354 104.068 110.625 104.027 110.868 103.943C111.11 103.856 111.32 103.729 111.498 103.562C111.676 103.396 111.811 103.189 111.902 102.943L113.822 103.159C113.701 103.667 113.47 104.11 113.129 104.489C112.792 104.864 112.36 105.155 111.834 105.364C111.307 105.568 110.705 105.67 110.027 105.67ZM121.307 105.5V93.8636H125.762C126.603 93.8636 127.301 93.9962 127.858 94.2614C128.419 94.5227 128.837 94.8807 129.114 95.3352C129.394 95.7898 129.534 96.3049 129.534 96.8807C129.534 97.3542 129.443 97.7595 129.262 98.0966C129.08 98.4299 128.836 98.7008 128.529 98.9091C128.222 99.1174 127.879 99.267 127.5 99.358V99.4716C127.913 99.4943 128.309 99.6212 128.688 99.8523C129.07 100.08 129.383 100.402 129.625 100.818C129.868 101.235 129.989 101.739 129.989 102.33C129.989 102.932 129.843 103.473 129.551 103.955C129.26 104.432 128.82 104.809 128.233 105.085C127.646 105.362 126.907 105.5 126.017 105.5H121.307ZM123.415 103.739H125.682C126.447 103.739 126.998 103.593 127.336 103.301C127.676 103.006 127.847 102.627 127.847 102.165C127.847 101.82 127.762 101.509 127.591 101.233C127.421 100.953 127.178 100.733 126.864 100.574C126.55 100.411 126.175 100.33 125.739 100.33H123.415V103.739ZM123.415 98.8125H125.5C125.864 98.8125 126.192 98.7462 126.483 98.6136C126.775 98.4773 127.004 98.286 127.171 98.0398C127.341 97.7898 127.426 97.4943 127.426 97.1534C127.426 96.7027 127.267 96.3314 126.949 96.0398C126.635 95.7481 126.167 95.6023 125.546 95.6023H123.415V98.8125ZM134.589 93.8636V105.5H132.532V93.8636H134.589ZM141.311 105.67C140.458 105.67 139.72 105.483 139.095 105.108C138.47 104.733 137.985 104.208 137.64 103.534C137.299 102.86 137.129 102.072 137.129 101.17C137.129 100.269 137.299 99.4792 137.64 98.8011C137.985 98.1231 138.47 97.5966 139.095 97.2216C139.72 96.8466 140.458 96.6591 141.311 96.6591C142.163 96.6591 142.901 96.8466 143.526 97.2216C144.151 97.5966 144.634 98.1231 144.975 98.8011C145.32 99.4792 145.492 100.269 145.492 101.17C145.492 102.072 145.32 102.86 144.975 103.534C144.634 104.208 144.151 104.733 143.526 105.108C142.901 105.483 142.163 105.67 141.311 105.67ZM141.322 104.023C141.784 104.023 142.17 103.896 142.481 103.642C142.792 103.384 143.023 103.04 143.174 102.608C143.329 102.176 143.407 101.695 143.407 101.165C143.407 100.631 143.329 100.148 143.174 99.7159C143.023 99.2803 142.792 98.9337 142.481 98.6761C142.17 98.4186 141.784 98.2898 141.322 98.2898C140.848 98.2898 140.454 98.4186 140.14 98.6761C139.829 98.9337 139.596 99.2803 139.441 99.7159C139.29 100.148 139.214 100.631 139.214 101.165C139.214 101.695 139.29 102.176 139.441 102.608C139.596 103.04 139.829 103.384 140.14 103.642C140.454 103.896 140.848 104.023 141.322 104.023ZM151.845 105.67C150.993 105.67 150.254 105.483 149.629 105.108C149.004 104.733 148.519 104.208 148.174 103.534C147.834 102.86 147.663 102.072 147.663 101.17C147.663 100.269 147.834 99.4792 148.174 98.8011C148.519 98.1231 149.004 97.5966 149.629 97.2216C150.254 96.8466 150.993 96.6591 151.845 96.6591C152.697 96.6591 153.436 96.8466 154.061 97.2216C154.686 97.5966 155.169 98.1231 155.51 98.8011C155.854 99.4792 156.027 100.269 156.027 101.17C156.027 102.072 155.854 102.86 155.51 103.534C155.169 104.208 154.686 104.733 154.061 105.108C153.436 105.483 152.697 105.67 151.845 105.67ZM151.856 104.023C152.318 104.023 152.705 103.896 153.015 103.642C153.326 103.384 153.557 103.04 153.709 102.608C153.864 102.176 153.941 101.695 153.941 101.165C153.941 100.631 153.864 100.148 153.709 99.7159C153.557 99.2803 153.326 98.9337 153.015 98.6761C152.705 98.4186 152.318 98.2898 151.856 98.2898C151.383 98.2898 150.989 98.4186 150.674 98.6761C150.364 98.9337 150.131 99.2803 149.976 99.7159C149.824 100.148 149.748 100.631 149.748 101.165C149.748 101.695 149.824 102.176 149.976 102.608C150.131 103.04 150.364 103.384 150.674 103.642C150.989 103.896 151.383 104.023 151.856 104.023ZM161.811 105.653C161.125 105.653 160.512 105.477 159.97 105.125C159.429 104.773 159 104.261 158.686 103.591C158.372 102.92 158.214 102.106 158.214 101.148C158.214 100.178 158.374 99.3598 158.692 98.6932C159.014 98.0227 159.447 97.517 159.993 97.1761C160.538 96.8314 161.146 96.6591 161.817 96.6591C162.328 96.6591 162.749 96.7462 163.078 96.9205C163.408 97.0909 163.669 97.2973 163.862 97.5398C164.055 97.7784 164.205 98.0038 164.311 98.2159H164.396V93.8636H166.459V105.5H164.436V104.125H164.311C164.205 104.337 164.052 104.562 163.851 104.801C163.65 105.036 163.385 105.237 163.055 105.403C162.726 105.57 162.311 105.653 161.811 105.653ZM162.385 103.966C162.821 103.966 163.192 103.848 163.499 103.614C163.805 103.375 164.038 103.044 164.197 102.619C164.357 102.195 164.436 101.701 164.436 101.136C164.436 100.572 164.357 100.081 164.197 99.6648C164.042 99.2481 163.811 98.9242 163.504 98.6932C163.201 98.4621 162.828 98.3466 162.385 98.3466C161.927 98.3466 161.544 98.4659 161.237 98.7045C160.93 98.9432 160.699 99.2727 160.544 99.6932C160.389 100.114 160.311 100.595 160.311 101.136C160.311 101.682 160.389 102.169 160.544 102.597C160.703 103.021 160.936 103.356 161.243 103.602C161.554 103.845 161.934 103.966 162.385 103.966ZM176.634 103.909L176.56 104.534C176.507 105.011 176.412 105.496 176.276 105.989C176.144 106.485 176.003 106.941 175.856 107.358C175.708 107.775 175.589 108.102 175.498 108.341H174.111C174.164 108.11 174.236 107.795 174.327 107.398C174.422 107 174.513 106.553 174.6 106.057C174.687 105.561 174.746 105.057 174.776 104.545L174.816 103.909H176.634ZM186.153 97.0625C186.1 96.5663 185.876 96.1799 185.482 95.9034C185.092 95.6269 184.585 95.4886 183.96 95.4886C183.52 95.4886 183.143 95.5549 182.829 95.6875C182.515 95.8201 182.274 96 182.107 96.2273C181.941 96.4545 181.855 96.714 181.852 97.0057C181.852 97.2481 181.907 97.4583 182.016 97.6364C182.13 97.8144 182.284 97.9659 182.477 98.0909C182.67 98.2121 182.884 98.3144 183.119 98.3977C183.354 98.4811 183.59 98.5511 183.829 98.608L184.92 98.8807C185.359 98.983 185.782 99.1212 186.187 99.2955C186.596 99.4697 186.962 99.6894 187.284 99.9545C187.609 100.22 187.867 100.54 188.056 100.915C188.246 101.29 188.34 101.729 188.34 102.233C188.34 102.915 188.166 103.515 187.818 104.034C187.469 104.549 186.965 104.953 186.306 105.244C185.651 105.532 184.857 105.676 183.926 105.676C183.02 105.676 182.234 105.536 181.568 105.256C180.905 104.975 180.386 104.566 180.011 104.028C179.64 103.491 179.439 102.835 179.409 102.062H181.482C181.513 102.468 181.638 102.805 181.857 103.074C182.077 103.343 182.363 103.544 182.715 103.676C183.071 103.809 183.469 103.875 183.909 103.875C184.367 103.875 184.768 103.807 185.113 103.67C185.462 103.53 185.734 103.337 185.931 103.091C186.128 102.841 186.229 102.549 186.232 102.216C186.229 101.913 186.14 101.663 185.965 101.466C185.791 101.265 185.547 101.098 185.232 100.966C184.922 100.83 184.558 100.708 184.141 100.602L182.818 100.261C181.859 100.015 181.102 99.642 180.545 99.142C179.992 98.6383 179.715 97.9697 179.715 97.1364C179.715 96.4508 179.901 95.8504 180.272 95.3352C180.647 94.8201 181.157 94.4205 181.801 94.1364C182.445 93.8485 183.174 93.7045 183.988 93.7045C184.814 93.7045 185.537 93.8485 186.159 94.1364C186.784 94.4205 187.274 94.8163 187.63 95.3239C187.986 95.8277 188.17 96.4072 188.181 97.0625H186.153ZM193.44 105.676C192.887 105.676 192.389 105.578 191.946 105.381C191.506 105.18 191.158 104.884 190.9 104.494C190.646 104.104 190.52 103.623 190.52 103.051C190.52 102.559 190.611 102.152 190.792 101.83C190.974 101.508 191.222 101.25 191.537 101.057C191.851 100.864 192.205 100.718 192.599 100.619C192.997 100.517 193.408 100.443 193.832 100.398C194.343 100.345 194.758 100.297 195.076 100.256C195.395 100.21 195.626 100.142 195.77 100.051C195.917 99.9564 195.991 99.8106 195.991 99.6136V99.5795C195.991 99.1515 195.864 98.8201 195.611 98.5852C195.357 98.3504 194.991 98.233 194.514 98.233C194.01 98.233 193.611 98.3428 193.315 98.5625C193.023 98.7822 192.826 99.0417 192.724 99.3409L190.804 99.0682C190.955 98.5379 191.205 98.0947 191.554 97.7386C191.902 97.3788 192.328 97.1098 192.832 96.9318C193.336 96.75 193.893 96.6591 194.503 96.6591C194.923 96.6591 195.342 96.7083 195.758 96.8068C196.175 96.9053 196.556 97.0682 196.9 97.2955C197.245 97.5189 197.521 97.8239 197.73 98.2102C197.942 98.5966 198.048 99.0795 198.048 99.6591V105.5H196.071V104.301H196.003C195.878 104.544 195.701 104.771 195.474 104.983C195.251 105.191 194.968 105.36 194.628 105.489C194.29 105.614 193.895 105.676 193.44 105.676ZM193.974 104.165C194.387 104.165 194.745 104.083 195.048 103.92C195.351 103.754 195.584 103.534 195.747 103.261C195.914 102.989 195.997 102.691 195.997 102.369V101.341C195.932 101.394 195.823 101.443 195.667 101.489C195.516 101.534 195.345 101.574 195.156 101.608C194.967 101.642 194.779 101.672 194.593 101.699C194.408 101.725 194.247 101.748 194.111 101.767C193.804 101.809 193.529 101.877 193.287 101.972C193.044 102.066 192.853 102.199 192.713 102.369C192.573 102.536 192.503 102.752 192.503 103.017C192.503 103.396 192.641 103.682 192.917 103.875C193.194 104.068 193.546 104.165 193.974 104.165ZM208.399 96.7727L205.291 105.5H203.018L199.911 96.7727H202.104L204.109 103.256H204.2L206.212 96.7727H208.399ZM214.189 105.67C213.314 105.67 212.559 105.489 211.922 105.125C211.29 104.758 210.803 104.239 210.462 103.568C210.121 102.894 209.951 102.1 209.951 101.188C209.951 100.29 210.121 99.5019 210.462 98.8239C210.807 98.142 211.288 97.6117 211.905 97.233C212.523 96.8504 213.248 96.6591 214.081 96.6591C214.619 96.6591 215.127 96.7462 215.604 96.9205C216.085 97.0909 216.509 97.3561 216.877 97.7159C217.248 98.0758 217.54 98.5341 217.752 99.0909C217.964 99.6439 218.07 100.303 218.07 101.068V101.699H210.916V100.312H216.098C216.095 99.9186 216.009 99.5682 215.843 99.2614C215.676 98.9508 215.443 98.7064 215.144 98.5284C214.848 98.3504 214.504 98.2614 214.11 98.2614C213.689 98.2614 213.32 98.3636 213.002 98.5682C212.684 98.7689 212.435 99.0341 212.257 99.3636C212.083 99.6894 211.994 100.047 211.99 100.438V101.648C211.99 102.155 212.083 102.591 212.269 102.955C212.454 103.314 212.714 103.591 213.047 103.784C213.38 103.973 213.771 104.068 214.218 104.068C214.517 104.068 214.788 104.027 215.03 103.943C215.273 103.856 215.483 103.729 215.661 103.562C215.839 103.396 215.973 103.189 216.064 102.943L217.985 103.159C217.863 103.667 217.632 104.11 217.291 104.489C216.954 104.864 216.523 105.155 215.996 105.364C215.47 105.568 214.867 105.67 214.189 105.67ZM225.47 105.5V93.8636H227.578V103.733H232.703V105.5H225.47ZM235.241 105.5V96.7727H237.298V105.5H235.241ZM236.275 95.5341C235.95 95.5341 235.669 95.4261 235.434 95.2102C235.2 94.9905 235.082 94.7273 235.082 94.4205C235.082 94.1098 235.2 93.8466 235.434 93.6307C235.669 93.411 235.95 93.3011 236.275 93.3011C236.605 93.3011 236.885 93.411 237.116 93.6307C237.351 93.8466 237.468 94.1098 237.468 94.4205C237.468 94.7273 237.351 94.9905 237.116 95.2102C236.885 95.4261 236.605 95.5341 236.275 95.5341ZM244.634 96.7727V98.3636H239.474V96.7727H244.634ZM240.764 105.5V95.9489C240.764 95.3617 240.885 94.8731 241.128 94.483C241.374 94.0928 241.704 93.8011 242.116 93.608C242.529 93.4148 242.988 93.3182 243.491 93.3182C243.848 93.3182 244.164 93.3466 244.44 93.4034C244.717 93.4602 244.921 93.5114 245.054 93.5568L244.645 95.1477C244.558 95.1212 244.448 95.0947 244.315 95.0682C244.183 95.0379 244.035 95.0227 243.872 95.0227C243.49 95.0227 243.219 95.1155 243.06 95.3011C242.904 95.483 242.827 95.7443 242.827 96.0852V105.5H240.764ZM250.58 105.67C249.705 105.67 248.949 105.489 248.313 105.125C247.68 104.758 247.193 104.239 246.853 103.568C246.512 102.894 246.341 102.1 246.341 101.188C246.341 100.29 246.512 99.5019 246.853 98.8239C247.197 98.142 247.678 97.6117 248.296 97.233C248.913 96.8504 249.639 96.6591 250.472 96.6591C251.01 96.6591 251.517 96.7462 251.995 96.9205C252.476 97.0909 252.9 97.3561 253.267 97.7159C253.639 98.0758 253.93 98.5341 254.142 99.0909C254.354 99.6439 254.461 100.303 254.461 101.068V101.699H247.307V100.312H252.489C252.485 99.9186 252.4 99.5682 252.233 99.2614C252.067 98.9508 251.834 98.7064 251.534 98.5284C251.239 98.3504 250.894 98.2614 250.5 98.2614C250.08 98.2614 249.711 98.3636 249.392 98.5682C249.074 98.7689 248.826 99.0341 248.648 99.3636C248.474 99.6894 248.385 100.047 248.381 100.438V101.648C248.381 102.155 248.474 102.591 248.659 102.955C248.845 103.314 249.104 103.591 249.438 103.784C249.771 103.973 250.161 104.068 250.608 104.068C250.907 104.068 251.178 104.027 251.421 103.943C251.663 103.856 251.873 103.729 252.051 103.562C252.229 103.396 252.364 103.189 252.455 102.943L254.375 103.159C254.254 103.667 254.023 104.11 253.682 104.489C253.345 104.864 252.913 105.155 252.387 105.364C251.86 105.568 251.258 105.67 250.58 105.67Z" fill="black"/>
<defs>
<clipPath id="clip0_221_37">
<rect width="108" height="73" fill="white" transform="translate(1.75781 14.5)"/>
</clipPath>
</defs>
</svg>
